<?xml version="1.0" encoding="utf-8"?>
<!-- Generator: Adobe Illustrator 16.0.0, SVG Export Plug-In . SVG Version: 6.00 Build 0)  -->
<!DOCTYPE svg PUBLIC "-//W3C//DTD SVG 1.1//EN" "http://www.w3.org/Graphics/SVG/1.1/DTD/svg11.dtd">
<svg version="1.1" id="Guides" xmlns="http://www.w3.org/2000/svg" xmlns:xlink="http://www.w3.org/1999/xlink" x="0px" y="0px"
	 width="395px" height="395px" viewBox="0 0 395 395" style="enable-background:new 0 0 395 395;" xml:space="preserve">
<circle style="fill:#A63B1C;" cx="197.5" cy="197.5" r="196"/>
<g>
	<path style="fill:none;stroke:#82341F;stroke-width:6.2974;stroke-linecap:round;stroke-miterlimit:10;" d="M68.374,220.171
		c18.269,18.27,47.836,18.269,66.104,0"/>
	<g>
		<path style="fill:#F9B19E;" d="M205.038,276.589c-3.89,3.889-10.253,3.889-14.143,0l-63.356-63.357
			c-3.889-3.889-3.889-10.253,0-14.143L234.681,91.947c3.89-3.889,10.253-3.889,14.143,0l63.357,63.357
			c3.89,3.889,3.89,10.252,0,14.142L205.038,276.589z"/>
	</g>
	<g id="top_2_">
		<g>
			<polygon style="fill:#6E3222;" points="220.109,84.374 319.754,184.018 325.289,78.838 			"/>
		</g>
	</g>
	<g id="stick_2_">
		<g>
			
				<rect x="92.396" y="260.846" transform="matrix(0.7071 -0.7071 0.7071 0.7071 -154.2239 172.8539)" style="fill:#C27560;" width="78.285" height="23.486"/>
		</g>
	</g>
	<g>
		
			<rect x="89.176" y="183.477" transform="matrix(0.7071 0.7071 -0.7071 0.7071 166.1024 -6.248)" style="fill:#F9B19E;" width="2.834" height="27.806"/>
	</g>
	<g>
		
			<rect x="33.12" y="198.784" transform="matrix(0.7071 0.7071 -0.7071 0.7071 155.3405 25.3904)" style="fill:#F9B19E;" width="27.806" height="2.834"/>
	</g>
	<g>
		<rect x="67.655" y="173.907" style="fill:#F9B19E;" width="2.835" height="27.806"/>
	</g>
	<g>
		
			<rect x="44.223" y="228.43" transform="matrix(0.7071 0.7071 -0.7071 0.7071 184.7229 38.7056)" style="fill:#F9B19E;" width="2.834" height="27.806"/>
	</g>
	<g>
		<rect x="22.168" y="219.395" style="fill:#F9B19E;" width="27.805" height="2.834"/>
	</g>
	<polygon style="fill:#C17460;" points="278.92,202.926 173.781,153.066 203.275,123.572 308.414,173.432 	"/>
	<polygon style="fill:#C17460;" points="232.639,249.609 129.165,198.083 156.882,170.367 260.354,221.893 	"/>
	<g id="stick_4_">
		<g>
			
				<rect x="97.837" y="273.709" transform="matrix(0.7071 -0.7071 0.7071 0.7071 -156.4774 178.2939)" style="fill:#82341F;" width="78.285" height="8.643"/>
		</g>
	</g>
</g>
</svg>
