<?xml version="1.0" encoding="utf-8"?>
<!-- Generator: Adobe Illustrator 16.0.0, SVG Export Plug-In . SVG Version: 6.00 Build 0)  -->
<!DOCTYPE svg PUBLIC "-//W3C//DTD SVG 1.1//EN" "http://www.w3.org/Graphics/SVG/1.1/DTD/svg11.dtd">
<svg version="1.1" id="Guides" xmlns="http://www.w3.org/2000/svg" xmlns:xlink="http://www.w3.org/1999/xlink" x="0px" y="0px"
	 width="395px" height="395px" viewBox="0 0 395 395" style="enable-background:new 0 0 395 395;" xml:space="preserve">
<circle style="fill:#A63B1C;" cx="197.5" cy="197" r="196"/>
<g>
	<path style="fill:#82341F;" d="M108.586,243.811c-9.635,0-17.47-7.833-17.47-17.469V72.615c0-9.636,7.835-17.469,17.47-17.469
		h223.602c9.635,0,17.469,7.833,17.469,17.469v153.727c0,9.636-7.834,17.469-17.469,17.469H108.586z"/>
	<path style="fill:#F9B19E;" d="M304.236,310.192c0,7.725-6.25,13.976-13.975,13.976H150.511c-7.717,0-13.975-6.251-13.975-13.976
		s6.258-13.975,13.975-13.975h139.751C297.986,296.217,304.236,302.468,304.236,310.192"/>
	<path style="fill:#C17460;" d="M255.324,254.292c0,0-6.988,41.925,20.963,41.925H164.486c27.949,0,20.962-41.925,20.962-41.925
		H255.324z"/>
	<polygon style="fill:#A55843;" points="346.168,239.471 346.168,57.808 180.208,57.808 284.688,239.471 	"/>
	<path style="fill:#F9B19E;" d="M332.188,65.628c3.848,0,6.988,3.139,6.988,6.987v153.727c0,3.848-3.141,6.987-6.988,6.987H108.586
		c-3.849,0-6.987-3.139-6.987-6.987V72.615c0-3.848,3.139-6.987,6.987-6.987H332.188 M332.188,44.665H108.586
		c-15.437,0-27.95,12.515-27.95,27.95v153.727c0,15.435,12.514,27.95,27.95,27.95h223.602c15.436,0,27.949-12.515,27.949-27.95
		V72.615C360.137,57.18,347.623,44.665,332.188,44.665"/>
	<path style="fill:#82341F;" d="M49.461,360.077c-5.03,0-9.124-4.092-9.124-9.124v-116.78c0-5.032,4.094-9.124,9.124-9.124h58.39
		c5.034,0,9.124,4.092,9.124,9.124v116.78c0,5.032-4.09,9.124-9.124,9.124H49.461z"/>
	<g>
		<defs>
			<rect id="SVGID_251_" x="57.672" y="225.049" width="57.482" height="139.115"/>
		</defs>
		<clipPath id="SVGID_2_">
			<use xlink:href="#SVGID_251_"  style="overflow:visible;"/>
		</clipPath>
	</g>
	<polygon style="fill:#A55843;" points="57.672,225.049 115.154,364.165 115.154,225.049 	"/>
	<path style="fill:#F9B19E;" d="M107.851,219.575h-58.39c-8.062,0-14.598,6.536-14.598,14.598v116.78
		c0,8.062,6.536,14.598,14.598,14.598h58.39c8.063,0,14.599-6.536,14.599-14.598v-116.78
		C122.449,226.111,115.913,219.575,107.851,219.575z M45.812,336.355V234.173c0-2.01,1.641-3.649,3.649-3.649h58.39
		c2.012,0,3.65,1.64,3.65,3.649v102.183H45.812z"/>
	<path style="fill:#C17460;" d="M85.955,350.953c0-4.034-3.265-7.298-7.3-7.298c-4.029,0-7.298,3.264-7.298,7.298
		c0,4.035,3.269,7.299,7.298,7.299C82.69,358.252,85.955,354.988,85.955,350.953"/>
</g>
</svg>
