<?xml version="1.0" encoding="utf-8"?>
<!-- Generator: Adobe Illustrator 16.0.0, SVG Export Plug-In . SVG Version: 6.00 Build 0)  -->
<!DOCTYPE svg PUBLIC "-//W3C//DTD SVG 1.1//EN" "http://www.w3.org/Graphics/SVG/1.1/DTD/svg11.dtd">
<svg version="1.1" id="Guides" xmlns="http://www.w3.org/2000/svg" xmlns:xlink="http://www.w3.org/1999/xlink" x="0px" y="0px"
	 width="395px" height="395px" viewBox="0 0 395 395" style="enable-background:new 0 0 395 395;" xml:space="preserve">
<circle style="fill:#A63B1C;" cx="197.5" cy="197.5" r="196"/>
<path style="fill:#6E3222;" d="M327.157,114.582l-48.046-48.043c-7.963-7.962-20.868-7.961-28.827-0.001l-24.023,24.021
	l19.221,19.222l38.434,38.433l19.219,19.22l24.023-24.022C335.116,135.451,335.117,122.544,327.157,114.582z"/>
<polygon style="fill:#6E3222;" points="136.28,218.98 241.979,113.28 222.76,94.06 217.953,98.866 107.451,209.37 117.059,218.979 
	"/>
<polygon style="fill:#A55843;" points="136.28,218.98 136.28,257.417 174.715,257.413 280.414,151.713 241.979,113.28 "/>
<polygon style="fill:#6E3222;" points="174.715,257.413 174.715,276.635 184.324,286.243 294.826,175.739 299.634,170.934 
	280.414,151.713 "/>
<polygon style="fill:#482116;" points="88.235,305.46 120.265,299.055 94.638,273.429 "/>
<polygon style="fill:#F9B4A2;" points="174.715,257.413 136.28,257.417 136.28,218.98 117.059,218.979 107.451,209.37 
	94.638,273.429 120.265,299.055 184.324,286.243 174.715,276.635 "/>
</svg>
