<?xml version="1.0" encoding="utf-8"?>
<!-- Generator: Adobe Illustrator 16.0.0, SVG Export Plug-In . SVG Version: 6.00 Build 0)  -->
<!DOCTYPE svg PUBLIC "-//W3C//DTD SVG 1.1//EN" "http://www.w3.org/Graphics/SVG/1.1/DTD/svg11.dtd">
<svg version="1.1" id="Guides" xmlns="http://www.w3.org/2000/svg" xmlns:xlink="http://www.w3.org/1999/xlink" x="0px" y="0px"
	 width="200px" height="200px" viewBox="0 0 200 200" style="enable-background:new 0 0 200 200;" xml:space="preserve">
<g>
	<defs>
		<rect id="SVGID_1_" width="200" height="200"/>
	</defs>
	<clipPath id="SVGID_2_">
		<use xlink:href="#SVGID_1_"  style="overflow:visible;"/>
	</clipPath>
	<path style="clip-path:url(#SVGID_2_);fill:#DB9E36;" d="M200,100c0,55.228-44.771,100-100,100C44.772,200,0,155.228,0,100
		S44.772,0,100,0C155.229,0,200,44.772,200,100"/>
	<g style="opacity:0.2;clip-path:url(#SVGID_2_);">
		<g>
			<defs>
				<rect id="SVGID_3_" x="62.5" y="37.5" width="75" height="125"/>
			</defs>
			<clipPath id="SVGID_4_">
				<use xlink:href="#SVGID_3_"  style="overflow:visible;"/>
			</clipPath>
			<path style="clip-path:url(#SVGID_4_);fill:#231F20;" d="M137.5,150c0,6.903-5.597,12.5-12.5,12.5H75
				c-6.903,0-12.5-5.597-12.5-12.5V50c0-6.903,5.597-12.5,12.5-12.5h50c6.903,0,12.5,5.597,12.5,12.5V150z"/>
		</g>
	</g>
	<path style="clip-path:url(#SVGID_2_);fill:#4F5D73;" d="M75,151.563c-4.309,0-7.813-3.504-7.813-7.813v-100
		c0-4.31,3.504-7.813,7.813-7.813h50c4.311,0,7.813,3.503,7.813,7.813v100c0,4.309-3.502,7.813-7.813,7.813H75z"/>
	<path style="clip-path:url(#SVGID_2_);fill:#FFFFFF;" d="M125,40.624c1.723,0,3.125,1.404,3.125,3.126v100
		c0,1.721-1.402,3.125-3.125,3.125H75c-1.72,0-3.125-1.404-3.125-3.125v-100c0-1.722,1.405-3.126,3.125-3.126H125 M125,31.25H75
		c-6.903,0-12.5,5.597-12.5,12.5v100c0,6.902,5.597,12.5,12.5,12.5h50c6.903,0,12.5-5.598,12.5-12.5v-100
		C137.5,36.847,131.903,31.25,125,31.25"/>
	<g style="opacity:0.2;clip-path:url(#SVGID_2_);">
		<g>
			<defs>
				<rect id="SVGID_5_" x="82.031" y="35.938" width="49.223" height="119.125"/>
			</defs>
			<clipPath id="SVGID_6_">
				<use xlink:href="#SVGID_5_"  style="overflow:visible;"/>
			</clipPath>
			<polygon style="clip-path:url(#SVGID_6_);fill:#FFFFFF;" points="82.031,35.938 131.254,155.063 131.254,35.938 			"/>
		</g>
	</g>
	<polygon style="clip-path:url(#SVGID_2_);fill:#FFFFFF;" points="125,156.25 75,156.25 62.5,131.25 137.5,131.25 	"/>
	<path style="clip-path:url(#SVGID_2_);fill:#E0E0D1;" d="M106.25,143.75c0-3.455-2.795-6.25-6.25-6.25
		c-3.45,0-6.25,2.795-6.25,6.25S96.55,150,100,150C103.455,150,106.25,147.205,106.25,143.75"/>
</g>
</svg>
