<?xml version="1.0" encoding="utf-8"?>
<!-- Generator: Adobe Illustrator 16.0.0, SVG Export Plug-In . SVG Version: 6.00 Build 0)  -->
<!DOCTYPE svg PUBLIC "-//W3C//DTD SVG 1.1//EN" "http://www.w3.org/Graphics/SVG/1.1/DTD/svg11.dtd">
<svg version="1.1" id="logo_x5F_bw_xA0_Image_1_" xmlns="http://www.w3.org/2000/svg" xmlns:xlink="http://www.w3.org/1999/xlink"
	 x="0px" y="0px" width="256.858px" height="70.504px" viewBox="0 0 256.858 70.504"
	 style="enable-background:new 0 0 256.858 70.504;" xml:space="preserve">
<g>
	<path style="fill:#484647;" d="M51.22,55.297h1.11v4.44c0,0.376-0.033,0.67-0.033,0.67h0.033c0.31-0.784,1.404-2.041,3.266-2.041
		c2.024,0,2.742,1.159,2.742,3.184v5.225h-1.11v-4.931c0-1.29-0.195-2.433-1.779-2.433c-1.404,0-2.612,0.963-2.987,2.335
		c-0.099,0.326-0.131,0.702-0.131,1.094v3.935h-1.11V55.297z"/>
	<path style="fill:#484647;" d="M64.638,58.366c2.399,0,4.343,1.828,4.343,4.261c0,2.482-1.943,4.344-4.343,4.344
		c-2.4,0-4.344-1.861-4.344-4.344C60.294,60.194,62.237,58.366,64.638,58.366z M64.638,65.975c1.763,0,3.199-1.437,3.199-3.348
		c0-1.86-1.437-3.249-3.199-3.249c-1.764,0-3.2,1.389-3.2,3.249C61.438,64.538,62.874,65.975,64.638,65.975z"/>
	<path style="fill:#484647;" d="M71.051,58.562h1.094v1.225c0,0.359-0.032,0.653-0.032,0.653h0.032
		c0.294-0.751,1.339-2.073,3.282-2.073c2.024,0,2.742,1.159,2.742,3.184v5.225h-1.11v-4.931c0-1.29-0.195-2.433-1.779-2.433
		c-1.404,0-2.612,0.963-2.987,2.318c-0.099,0.343-0.131,0.719-0.131,1.11v3.935h-1.11V58.562z"/>
	<path style="fill:#484647;" d="M80.647,55.297h1.11v9.29c0,1.077,0.49,1.24,0.914,1.24c0.147,0,0.278-0.016,0.278-0.016v0.995
		c0,0-0.196,0.033-0.408,0.033c-0.686,0-1.895-0.212-1.895-2.009V55.297z"/>
	<path style="fill:#484647;" d="M89.12,61.696h0.457v-0.212c0-1.584-0.865-2.122-2.041-2.122c-1.355,0-2.318,0.783-2.318,0.783
		l-0.522-0.849c0,0,1.078-0.931,2.923-0.931c1.976,0,3.069,1.094,3.069,3.151v5.257h-1.062v-0.898c0-0.408,0.033-0.686,0.033-0.686
		h-0.033c0,0-0.686,1.78-2.743,1.78c-1.371,0-2.792-0.801-2.792-2.433C84.091,61.762,87.699,61.696,89.12,61.696z M87.063,66.023
		c1.567,0,2.515-1.633,2.515-3.053v-0.359h-0.474c-1.29,0-3.869,0.049-3.869,1.861C85.234,65.239,85.838,66.023,87.063,66.023z"/>
	<path style="fill:#484647;" d="M93.248,58.562h1.062v0.801c0,0.359-0.033,0.637-0.033,0.637h0.033c0,0,0.669-1.633,2.841-1.633
		c2.204,0,3.575,1.763,3.575,4.311c0,2.596-1.551,4.294-3.674,4.294c-1.976,0-2.693-1.567-2.693-1.567h-0.033
		c0,0,0.033,0.294,0.033,0.718v3.919h-1.11V58.562z M96.938,65.991c1.453,0,2.646-1.225,2.646-3.314
		c0-2.009-1.062-3.299-2.596-3.299c-1.372,0-2.662,0.98-2.662,3.314C94.325,64.342,95.24,65.991,96.938,65.991z"/>
	<path style="fill:#484647;" d="M110.729,58.366c2.27,0,3.429,1.747,3.429,3.788c0,0.195-0.032,0.571-0.032,0.571h-6.303
		c0.049,2.105,1.485,3.249,3.184,3.249c1.502,0,2.498-0.996,2.498-0.996l0.507,0.849c0,0-1.192,1.144-3.037,1.144
		c-2.449,0-4.294-1.764-4.294-4.294C106.681,59.982,108.509,58.366,110.729,58.366z M113.031,61.812
		c-0.064-1.715-1.109-2.515-2.334-2.515c-1.372,0-2.563,0.865-2.825,2.515H113.031z M111.334,55.297h1.289l-1.403,1.942h-1.013
		L111.334,55.297z"/>
	<path style="fill:#484647;" d="M116.212,64.979c0,0,0.914,0.996,2.449,0.996c0.882,0,1.648-0.441,1.648-1.307
		c0-1.796-4.424-1.354-4.424-4.032c0-1.47,1.322-2.27,2.808-2.27c1.73,0,2.531,0.897,2.531,0.897l-0.507,0.85
		c0,0-0.701-0.751-2.057-0.751c-0.833,0-1.633,0.359-1.633,1.273c0,1.813,4.425,1.322,4.425,4.032c0,1.339-1.159,2.303-2.809,2.303
		c-1.992,0-3.037-1.192-3.037-1.192L116.212,64.979z"/>
	<path style="fill:#484647;" d="M132.258,61.696h0.457v-0.212c0-1.584-0.865-2.122-2.041-2.122c-1.355,0-2.318,0.783-2.318,0.783
		l-0.522-0.849c0,0,1.077-0.931,2.923-0.931c1.976,0,3.069,1.094,3.069,3.151v5.257h-1.062v-0.898c0-0.408,0.033-0.686,0.033-0.686
		h-0.033c0,0-0.686,1.78-2.743,1.78c-1.371,0-2.792-0.801-2.792-2.433C127.229,61.762,130.837,61.696,132.258,61.696z M130.2,66.023
		c1.567,0,2.515-1.633,2.515-3.053v-0.359h-0.474c-1.29,0-3.869,0.049-3.869,1.861C128.372,65.239,128.976,66.023,130.2,66.023z"/>
	<path style="fill:#484647;" d="M136.386,58.562h1.094v1.453c0,0.359-0.032,0.653-0.032,0.653h0.032
		c0.392-1.24,1.307-2.188,2.596-2.188c0.229,0,0.441,0.049,0.441,0.049v1.094c0,0-0.196-0.032-0.408-0.032
		c-1.159,0-2.024,0.914-2.384,2.122c-0.163,0.522-0.229,1.078-0.229,1.601v3.461h-1.11V58.562z"/>
	<path style="fill:#484647;" d="M145.838,58.366c2.008,0,3.004,1.176,3.004,1.176l-0.571,0.832c0,0-0.915-0.996-2.4-0.996
		c-1.796,0-3.2,1.339-3.2,3.299c0,1.926,1.421,3.298,3.232,3.298c1.666,0,2.629-1.159,2.629-1.159l0.506,0.865
		c0,0-1.109,1.29-3.199,1.29c-2.434,0-4.311-1.747-4.311-4.294C141.527,60.146,143.421,58.366,145.838,58.366z"/>
	<path style="fill:#484647;" d="M150.945,58.562h1.11v4.932c0,1.289,0.195,2.433,1.779,2.433c1.878,0,3.037-1.649,3.037-3.429
		v-3.936h1.11v8.213h-1.078V65.55c0-0.359,0.033-0.653,0.033-0.653h-0.033c-0.326,0.801-1.404,2.074-3.216,2.074
		c-1.927,0-2.743-1.045-2.743-3.185V58.562z"/>
	<path style="fill:#484647;" d="M160.574,55.297h1.11v9.29c0,1.077,0.49,1.24,0.914,1.24c0.147,0,0.278-0.016,0.278-0.016v0.995
		c0,0-0.196,0.033-0.408,0.033c-0.686,0-1.895-0.212-1.895-2.009V55.297z"/>
	<path style="fill:#484647;" d="M169.047,61.696h0.457v-0.212c0-1.584-0.865-2.122-2.041-2.122c-1.355,0-2.318,0.783-2.318,0.783
		l-0.522-0.849c0,0,1.077-0.931,2.923-0.931c1.976,0,3.069,1.094,3.069,3.151v5.257h-1.062v-0.898c0-0.408,0.033-0.686,0.033-0.686
		h-0.033c0,0-0.686,1.78-2.743,1.78c-1.371,0-2.792-0.801-2.792-2.433C164.018,61.762,167.626,61.696,169.047,61.696z
		 M166.989,66.023c1.567,0,2.515-1.633,2.515-3.053v-0.359h-0.474c-1.29,0-3.869,0.049-3.869,1.861
		C165.161,65.239,165.765,66.023,166.989,66.023z"/>
	<path style="fill:#484647;" d="M173.437,59.591h-1.078V58.66h1.094v-2.367h1.094v2.367h2.058v0.931h-2.058v4.081
		c0,1.927,1.225,2.172,1.846,2.172c0.229,0,0.375-0.032,0.375-0.032v0.995c0,0-0.18,0.033-0.474,0.033
		c-0.946,0-2.856-0.311-2.856-3.054V59.591z"/>
</g>
<g>
	<g>
		<path style="fill:#484647;" d="M68.143,36.795c0,0.75-0.451,1.3-1.601,1.3c-1.15,0-1.602-0.55-1.602-1.3V20.237
			c0-3.952-2.501-6.053-5.604-6.053c-3.1,0-5.602,2.101-5.602,6.053v16.558c0,0.75-0.449,1.3-1.6,1.3c-1.151,0-1.601-0.55-1.601-1.3
			V2.079c0-0.749,0.449-1.3,1.601-1.3c1.15,0,1.6,0.551,1.6,1.3v12.056c1.201-1.601,3.451-2.751,6.053-2.751
			c4.303,0,8.354,3.001,8.354,8.603V36.795z"/>
		<path style="fill:#484647;" d="M116.858,29.691c0,5.603-4.151,8.604-8.805,8.604c-4.65,0-8.802-3.001-8.802-8.604v-9.705
			c0-5.602,4.051-8.603,8.353-8.603c2.602,0,4.851,1.15,6.053,2.751V2.079c0-0.749,0.449-1.3,1.601-1.3s1.601,0.551,1.601,1.3
			V29.691z M113.657,20.237c0-3.952-2.501-6.053-5.604-6.053c-3.1,0-5.602,2.101-5.602,6.053v9.205c0,3.951,2.502,6.052,5.602,6.052
			c3.103,0,5.604-2.101,5.604-6.052V20.237z"/>
		<path style="fill:#484647;" d="M138.865,16.587c-0.85,0.55-1.5,0.25-1.999-0.351c-1.001-1.201-2.402-2.052-4.402-2.052
			c-2.801,0-5.402,2.001-5.402,5.503v17.107c0,0.75-0.45,1.3-1.601,1.3s-1.601-0.55-1.601-1.3V19.536
			c0-4.902,3.902-8.152,8.604-8.152c2.601,0,5.552,1.051,7.052,3.301C139.916,15.334,139.716,16.036,138.865,16.587z"/>
		<path style="fill:#484647;" d="M161.325,29.691c0,5.603-4.152,8.604-8.806,8.604c-4.651,0-8.802-3.001-8.802-8.604v-9.705
			c0-5.602,4.15-8.603,8.802-8.603c4.653,0,8.806,3.001,8.806,8.603V29.691z M158.123,20.237c0-3.952-2.501-6.053-5.604-6.053
			c-3.099,0-5.602,2.101-5.602,6.053v9.205c0,3.951,2.503,6.052,5.602,6.052c3.103,0,5.604-2.101,5.604-6.052V20.237z"/>
		<path style="fill:#484647;" d="M181.73,39.646v-4.102c-1.2,1.601-3.451,2.751-6.053,2.751c-4.302,0-8.353-3.001-8.353-8.604
			v-9.705c0-5.602,4.151-8.603,8.804-8.603c4.651,0,8.804,3.001,8.804,8.603v19.86c0,5.85-4.052,9.054-9.355,9.054
			c-2.201,0-4.702-0.701-6.401-2.052c-0.802-0.6-0.802-1.4-0.25-2.101c0.55-0.701,1.351-0.85,2.101-0.25
			c1.301,1.052,2.952,1.601,4.551,1.601C179.379,46.099,181.73,43.697,181.73,39.646z M181.73,20.237
			c0-3.952-2.501-6.053-5.602-6.053c-3.102,0-5.603,2.101-5.603,6.053v9.205c0,3.951,2.501,6.052,5.603,6.052
			c3.101,0,5.602-2.101,5.602-6.052V20.237z"/>
		<path style="fill:#484647;" d="M208.84,30.342c0,4.451-3.751,7.953-8.702,7.953c-4.953,0-8.704-3.401-8.704-8.202V20.087
			c0-5.402,3.802-8.703,8.704-8.703c5.001,0,8.702,3.552,8.702,7.702c0,3.652-1.999,6.005-6.401,7.004l-6.153,1.401
			c-0.9,0.199-1.651,0.65-1.651,1.301v1.25c0,3.152,2.352,5.452,5.504,5.452c3.201,0,5.502-2.451,5.502-5.252v-0.25
			c0-0.749,0.45-1.301,1.6-1.301c1.151,0,1.601,0.552,1.601,1.301V30.342z M194.634,20.237v5.252c0.301-0.351,0.901-0.6,1.802-0.8
			l5.252-1.202c2.501-0.598,3.952-1.949,3.952-4.401c0-2.451-2.15-4.901-5.502-4.901C197.437,14.185,194.634,16.036,194.634,20.237z
			"/>
		<path style="fill:#484647;" d="M229.747,20.237c0-3.952-2.501-6.053-5.602-6.053c-3.102,0-5.604,2.101-5.604,6.053v16.558
			c0,0.75-0.45,1.3-1.601,1.3c-1.149,0-1.601-0.55-1.601-1.3V19.986c0-5.602,4.152-8.603,8.805-8.603s8.805,3.001,8.805,8.603
			v16.809c0,0.75-0.45,1.3-1.603,1.3c-1.15,0-1.601-0.55-1.601-1.3V20.237z"/>
		<path style="fill:#484647;" d="M256.857,30.342c0,4.451-3.751,7.953-8.704,7.953c-4.952,0-8.704-3.401-8.704-8.202V20.087
			c0-5.402,3.803-8.703,8.704-8.703c5.001,0,8.704,3.552,8.704,7.702c0,3.652-2.002,6.005-6.403,7.004l-6.151,1.401
			c-0.902,0.199-1.652,0.65-1.652,1.301v1.25c0,3.152,2.351,5.452,5.503,5.452c3.2,0,5.502-2.451,5.502-5.252v-0.25
			c0-0.749,0.451-1.301,1.602-1.301s1.601,0.552,1.601,1.301V30.342z M242.65,20.237v5.252c0.301-0.351,0.901-0.6,1.801-0.8
			l5.252-1.202c2.501-0.598,3.952-1.949,3.952-4.401c0-2.451-2.15-4.901-5.502-4.901C245.452,14.185,242.65,16.036,242.65,20.237z"
			/>
		<path style="fill:#484647;" d="M75.132,12.898c0-0.751,0.449-1.301,1.601-1.301c1.15,0,1.601,0.55,1.601,1.301v16.556
			c0,3.953,2.501,6.052,5.604,6.052c3.101,0,5.601-2.099,5.601-6.052V12.898c0-0.751,0.451-1.301,1.602-1.301
			c1.151,0,1.601,0.55,1.601,1.301v34.713c0,0.752-0.449,1.302-1.601,1.302c-1.15,0-1.602-0.55-1.602-1.302V35.558
			c-1.199,1.6-3.451,2.752-6.051,2.752c-4.303,0-8.354-3.003-8.354-8.604V12.898z"/>
	</g>
</g>
<path style="fill:#484647;" d="M27.895,9.104c-2.454-2.231-5.483-3.858-8.766-4.706c-0.143-0.039-0.91-0.24-1.962-0.381l-0.16-0.021
	v0.025h-0.027c-0.494,0-0.958,0.194-1.307,0.548c-0.339,0.346-0.525,0.802-0.525,1.282c-0.008,1.276,0.965,1.746,1.537,1.822
	c3.372,0.53,6.434,2.007,8.853,4.27c3.383,3.163,5.246,7.643,5.246,12.613v13.818l-0.033-0.002v22.676
	c0,0.593-0.248,1.588-1.907,1.588s-1.907-0.995-1.907-1.588v-12.27l-0.242,0.241c-1.477,1.474-3.665,2.319-6.004,2.319
	c-2.412,0-4.651-0.853-6.307-2.4c-1.829-1.71-2.796-4.119-2.796-6.968V24.064c0-0.592,0.248-1.585,1.908-1.585
	c1.659,0,1.907,0.993,1.907,1.585v17.641c0,3.795,2.264,6.246,5.767,6.246s5.767-2.451,5.767-6.246V24.086
	c-0.226-7.947-6.344-12.439-12.271-12.771c-0.243-0.011-0.483-0.018-0.713-0.018c-0.781,0-1.563,0.067-2.32,0.2l-0.036,0.006V5.476
	c0-0.778-0.146-1.517-0.432-2.194C10.303,1.257,8.247,0,5.798,0c-3.36,0-5.799,2.304-5.799,5.479v36.511
	c0,5.996,2.396,11.476,6.746,15.431c1.596,1.452,3.438,2.646,5.479,3.551l-0.018,0.006l0.348,0.146
	c0.106,0.045,0.211,0.086,0.317,0.128l0.301,0.122c0.395,0.152,0.762,0.282,1.119,0.397c0.429,0.142,0.82,0.257,1.221,0.36
	c0.334,0.072,1.214,0.254,2.174,0.381l0.16,0.021v-0.024c0.01,0,0.019,0,0.028,0c0.495,0,0.958-0.194,1.297-0.542l0.028-0.032
	c0.326-0.344,0.506-0.791,0.506-1.258c0-0.485-0.192-0.944-0.532-1.28l-0.032-0.037c-0.213-0.207-0.485-0.36-0.79-0.443
	l-0.037,0.137l-0.025-0.151c-0.103-0.014-0.204-0.029-0.312-0.047l-0.131-0.019c-0.197-0.032-0.394-0.07-0.588-0.109l-0.118-0.022
	c-0.733-0.154-1.478-0.363-2.213-0.62l-0.068-0.041l-0.019,0.018c-2.139-0.766-4.122-1.967-5.739-3.479
	c-3.382-3.164-5.245-7.645-5.245-12.613l0.034-4.306V5.476c0-0.593,0.248-1.588,1.908-1.588c1.658,0,1.906,0.995,1.906,1.588v12.27
	l0.242-0.241c1.477-1.473,3.665-2.317,6.004-2.317c2.412,0,4.651,0.853,6.307,2.4c1.828,1.709,2.795,4.118,2.795,6.967v17.905
	c0,0.593-0.248,1.587-1.907,1.587s-1.907-0.994-1.907-1.587v-17.64c0-3.793-2.264-6.243-5.767-6.243s-5.767,2.45-5.767,6.243
	c0.007,4.008,0.025,17.154-0.009,18.095c0.206,3.526,1.6,6.591,4.03,8.864c2.377,2.225,5.561,3.449,8.964,3.449
	c0.77,0,1.55-0.067,2.319-0.2l0.034-0.006v6.024c0,3.175,2.439,5.479,5.8,5.479c3.359,0,5.797-2.304,5.797-5.479V24.535
	C34.64,18.54,32.244,13.06,27.895,9.104z"/>
</svg>
