<?xml version="1.0" encoding="utf-8"?>
<!-- Generator: Adobe Illustrator 18.0.0, SVG Export Plug-In . SVG Version: 6.00 Build 0)  -->
<!DOCTYPE svg PUBLIC "-//W3C//DTD SVG 1.1//EN" "http://www.w3.org/Graphics/SVG/1.1/DTD/svg11.dtd">
<svg version="1.1" id="Layer_1" xmlns="http://www.w3.org/2000/svg" xmlns:xlink="http://www.w3.org/1999/xlink" x="0px" y="0px"
	 viewBox="0 0 500 500" enable-background="new 0 0 500 500" xml:space="preserve">
<path fill="#BD4932" d="M332.2,85.4c-16.5-15-37-26-59.1-31.8c-1-0.3-6.1-1.6-13.2-2.6l-1.1-0.2V51h-0.2c-3.4,0-6.5,1.3-8.9,3.7
	c-2.3,2.3-3.6,5.3-3.6,8.7c0,8.6,6.5,11.8,10.3,12.3c22.8,3.6,43.5,13.6,59.8,28.8c22.8,21.3,35.4,51.5,35.4,85.1v93.2h-0.2V436
	c0,4-1.6,10.7-12.9,10.7c-11.1,0-12.9-6.8-12.9-10.7v-82.7l-1.6,1.6c-10,10-24.7,15.7-40.5,15.7c-16.3,0-31.3-5.8-42.5-16.2
	c-12.3-11.5-18.9-27.8-18.9-47V186.6c0-4,1.6-10.7,12.9-10.7c11.1,0,12.9,6.6,12.9,10.7v119.1c0,25.5,15.3,42.2,38.9,42.2
	s38.9-16.5,38.9-42.2V186.7c-1.5-53.6-42.8-83.8-82.7-86.1c-1.6,0-3.2-0.2-4.8-0.2c-5.3,0-10.5,0.5-15.7,1.3h-0.3V61
	c0-5.2-1-10.2-2.9-14.9c-5.8-13.7-19.7-22.1-36.2-22.1c-22.6,0-39.1,15.5-39.1,37v246.4c0,40.4,16.2,77.4,45.6,104
	c10.8,9.9,23.3,17.9,37,23.9h-0.2l2.4,1c0.6,0.3,1.5,0.6,2.1,0.8l2.1,0.8c2.6,1,5.2,1.9,7.6,2.7c2.9,1,5.5,1.8,8.2,2.4
	c2.3,0.5,8.2,1.8,14.7,2.6l1.1,0.2v-0.2h0.2c3.4,0,6.5-1.3,8.7-3.7l0.2-0.2c2.3-2.3,3.4-5.3,3.4-8.6s-1.3-6.3-3.6-8.6l-0.2-0.3
	c-1.5-1.5-3.2-2.4-5.3-3.1l-0.3,1l-0.2-1c-0.6-0.2-1.5-0.2-2.1-0.3l-0.8-0.2c-1.3-0.2-2.6-0.5-4-0.8l-0.8-0.2c-5-1-10-2.4-14.9-4.2
	l-0.5-0.3l-0.2,0.2c-14.4-5.2-27.8-13.2-38.8-23.4c-22.8-21.3-35.4-51.5-35.4-85.1l0.2-29.1V61c0-4,1.6-10.7,12.9-10.7
	c11.1,0,12.9,6.8,12.9,10.7v82.7l1.6-1.6c10-10,24.7-15.7,40.5-15.7c16.3,0,31.3,5.8,42.5,16.2c12.3,11.5,18.9,27.8,18.9,47v120.8
	c0,4-1.6,10.7-12.9,10.7s-12.9-6.8-12.9-10.7V191.4c0-25.5-15.3-42.2-38.9-42.2S196,165.7,196,191.4c0,27,0.2,115.7,0,122.1
	c1.5,23.7,10.8,44.4,27.1,59.8c16,15,37.5,23.3,60.4,23.3c5.2,0,10.5-0.5,15.7-1.3h0.2V436c0,21.5,16.5,37,39.1,37
	s39.1-15.5,39.1-37V189.6C377.8,149.1,361.6,112.1,332.2,85.4z"/>
</svg>
