<?xml version="1.0" encoding="utf-8"?>
<!-- Generator: Adobe Illustrator 18.0.0, SVG Export Plug-In . SVG Version: 6.00 Build 0)  -->
<!DOCTYPE svg PUBLIC "-//W3C//DTD SVG 1.1//EN" "http://www.w3.org/Graphics/SVG/1.1/DTD/svg11.dtd">
<svg version="1.1" id="Layer_1" xmlns="http://www.w3.org/2000/svg" xmlns:xlink="http://www.w3.org/1999/xlink" x="0px" y="0px"
	 viewBox="0 0 155 309.5" enable-background="new 0 0 155 309.5" xml:space="preserve">
<path fill="#484647" d="M122.2,53c-10.2-9.3-22.9-16.1-36.6-19.7c-0.6-0.2-3.8-1-8.2-1.6l-0.7-0.1v0.1h-0.1c-2.1,0-4,0.8-5.5,2.3
	c-1.4,1.4-2.2,3.3-2.2,5.4c0,5.3,4,7.3,6.4,7.6c14.1,2.2,26.9,8.4,37,17.8c14.1,13.2,21.9,31.9,21.9,52.7v57.7l-0.1,0V270
	c0,2.5-1,6.6-8,6.6c-6.9,0-8-4.2-8-6.6v-51.2l-1,1c-6.2,6.2-15.3,9.7-25.1,9.7c-10.1,0-19.4-3.6-26.3-10
	c-7.6-7.1-11.7-17.2-11.7-29.1v-74.8c0-2.5,1-6.6,8-6.6c6.9,0,8,4.1,8,6.6v73.7c0,15.8,9.5,26.1,24.1,26.1s24.1-10.2,24.1-26.1
	v-73.6c-0.9-33.2-26.5-51.9-51.2-53.3c-1,0-2-0.1-3-0.1c-3.3,0-6.5,0.3-9.7,0.8l-0.2,0V37.9c0-3.2-0.6-6.3-1.8-9.2
	C48.7,20.2,40.1,15,29.9,15c-14,0-24.2,9.6-24.2,22.9v152.5c0,25,10,47.9,28.2,64.4c6.7,6.1,14.4,11.1,22.9,14.8l-0.1,0l1.5,0.6
	c0.4,0.2,0.9,0.4,1.3,0.5l1.3,0.5c1.6,0.6,3.2,1.2,4.7,1.7c1.8,0.6,3.4,1.1,5.1,1.5c1.4,0.3,5.1,1.1,9.1,1.6l0.7,0.1v-0.1
	c0,0,0.1,0,0.1,0c2.1,0,4-0.8,5.4-2.3l0.1-0.1c1.4-1.4,2.1-3.3,2.1-5.3c0-2-0.8-3.9-2.2-5.3l-0.1-0.2c-0.9-0.9-2-1.5-3.3-1.9
	l-0.2,0.6l-0.1-0.6c-0.4-0.1-0.9-0.1-1.3-0.2l-0.5-0.1c-0.8-0.1-1.6-0.3-2.5-0.5l-0.5-0.1c-3.1-0.6-6.2-1.5-9.2-2.6l-0.3-0.2
	l-0.1,0.1c-8.9-3.2-17.2-8.2-24-14.5c-14.1-13.2-21.9-31.9-21.9-52.7l0.1-18V37.9c0-2.5,1-6.6,8-6.6c6.9,0,8,4.2,8,6.6v51.2l1-1
	c6.2-6.2,15.3-9.7,25.1-9.7c10.1,0,19.4,3.6,26.3,10c7.6,7.1,11.7,17.2,11.7,29.1v74.8c0,2.5-1,6.6-8,6.6s-8-4.2-8-6.6v-73.7
	c0-15.8-9.5-26.1-24.1-26.1s-24.1,10.2-24.1,26.1c0,16.7,0.1,71.6,0,75.6c0.9,14.7,6.7,27.5,16.8,37c9.9,9.3,23.2,14.4,37.4,14.4
	c3.2,0,6.5-0.3,9.7-0.8l0.1,0v25.2c0,13.3,10.2,22.9,24.2,22.9c14,0,24.2-9.6,24.2-22.9V117.5C150.4,92.4,140.4,69.5,122.2,53z"/>
</svg>
